# xmcd
#
# Track frame offsets:
#	150
#	8622
#	19961
#	29700
#	44150
#	57120
#	68406
#	81418
#	93496
#	106290
#	117403
#	130844
#	143142
#	156867
#	169270
#	183148
#	193874
#	206483
#
# Disc length: 2973 seconds
#
# Revision: 0
# Processed by: cddbd v1.5.2PL0 Copyright (c) Steve Scherf et al.
# Submitted via: dBpowerAMP V4.0
#
DISCID=fc0b9b12
DTITLE=Hank Williams Jnr - The Essential
DYEAR=1900
DGENRE=Country
TTITLE0=01 Long Gone Lonesome Blues
TTITLE1=02 Endless Sleep
TTITLE2=03 Your Cheatin' Heart
TTITLE3=04 Standing In The Shadows
TTITLE4=05 Nobody's Child
TTITLE5=06 I Wouldn't Change A Thing About You
TTITLE6=07 The Old Ryman
TTITLE7=08 It's All Over but The Crying
TTITLE8=09 I Was With Red Foley (The Night He Passed Away)
TTITLE9=10 Custody
TTITLE10=11 A Baby Again
TTITLE11=12 Cajun Baby
TTITLE12=13 Be Careful Of The Stones That You Throw
TTITLE13=14 I'd Rather Be Gone
TTITLE14=15 A Rainy Night In Georgia
TTITLE15=16 I'll Think Of Somthing
TTITLE16=17 Stoned At The Jukebox
TTITLE17=18 Living Proof
EXTD=
EXTT0=
EXTT1=
EXTT2=
EXTT3=
EXTT4=
EXTT5=
EXTT6=
EXTT7=
EXTT8=
EXTT9=
EXTT10=
EXTT11=
EXTT12=
EXTT13=
EXTT14=
EXTT15=
EXTT16=
EXTT17=
PLAYORDER=
